<svg width="14" height="14" viewBox="0 0 14 14" fill="none" xmlns="http://www.w3.org/2000/svg">
<path d="M4.9525 8.57499L6.99999 7.33249L9.04749 8.57499L8.50499 6.2475L10.325 4.6725L7.92749 4.48L6.99999 2.275L6.0725 4.48L3.675 4.6725L5.495 6.2475L4.9525 8.57499ZM0 14V1.4C0 1.015 0.1372 0.685533 0.4116 0.4116C0.685999 0.137667 1.01547 0.000466666 1.4 0H12.6C12.985 0 13.3147 0.1372 13.5891 0.4116C13.8635 0.685999 14.0005 1.01547 14 1.4V9.79999C14 10.185 13.863 10.5147 13.5891 10.7891C13.3152 11.0635 12.9855 11.2005 12.6 11.2H2.8L0 14ZM2.205 9.79999H12.6V1.4H1.4V10.5875L2.205 9.79999Z" fill="black"/>
</svg>
