<svg width="13" height="12" viewBox="0 0 13 12" fill="none" xmlns="http://www.w3.org/2000/svg">
<path d="M6.5 11.9275L5.5575 11.0825C4.46333 10.0967 3.55875 9.24625 2.84375 8.53125C2.12875 7.81625 1.56 7.17427 1.1375 6.6053C0.715 6.03677 0.4199 5.51417 0.2522 5.0375C0.0845 4.56083 0.000433333 4.07333 0 3.575C0 2.55667 0.34125 1.70625 1.02375 1.02375C1.70625 0.34125 2.55667 0 3.575 0C4.13833 0 4.67458 0.119167 5.18375 0.3575C5.69292 0.595833 6.13167 0.931667 6.5 1.365C6.86833 0.931667 7.30708 0.595833 7.81625 0.3575C8.32542 0.119167 8.86167 0 9.425 0C10.4433 0 11.2938 0.34125 11.9763 1.02375C12.6587 1.70625 13 2.55667 13 3.575C13 4.07333 12.9162 4.56083 12.7485 5.0375C12.5808 5.51417 12.2854 6.03677 11.8625 6.6053C11.44 7.17427 10.8712 7.81625 10.1562 8.53125C9.44125 9.24625 8.53667 10.0967 7.4425 11.0825L6.5 11.9275ZM6.5 10.1725C7.54 9.24083 8.39583 8.44198 9.0675 7.77595C9.73917 7.10992 10.27 6.53033 10.66 6.0372C11.05 5.54407 11.3208 5.1051 11.4725 4.7203C11.6242 4.3355 11.7 3.95373 11.7 3.575C11.7 2.925 11.4833 2.38333 11.05 1.95C10.6167 1.51667 10.075 1.3 9.425 1.3C8.91583 1.3 8.44458 1.44343 8.01125 1.7303C7.57792 2.01717 7.28 2.3829 7.1175 2.8275H5.8825C5.72 2.38333 5.42208 2.01782 4.98875 1.73095C4.55542 1.44408 4.08417 1.30043 3.575 1.3C2.925 1.3 2.38333 1.51667 1.95 1.95C1.51667 2.38333 1.3 2.925 1.3 3.575C1.3 3.95417 1.37583 4.33615 1.5275 4.72095C1.67917 5.10575 1.95 5.5445 2.34 6.0372C2.73 6.5299 3.26083 7.10948 3.9325 7.77595C4.60417 8.44242 5.46 9.24127 6.5 10.1725Z" fill="black"/>
</svg>
