<svg width="15" height="15" viewBox="0 0 15 15" fill="none" xmlns="http://www.w3.org/2000/svg">
<path d="M13.3081 8.4375H14.0625V9.375H13.9014C13.8037 9.65332 13.667 9.90723 13.4912 10.1367C13.3154 10.3662 13.1079 10.564 12.8687 10.73C12.6294 10.896 12.3755 11.0229 12.1069 11.1108C11.8384 11.1987 11.5527 11.2451 11.25 11.25C10.957 11.25 10.6714 11.2061 10.3931 11.1182C10.1147 11.0303 9.8584 10.9033 9.62402 10.7373C9.38965 10.5713 9.18457 10.3735 9.00879 10.144C8.83301 9.91455 8.69629 9.6582 8.59863 9.375H8.4375V8.4375H9.19189L10.5615 4.33594L7.5 3.31787V12.2021C8.3252 12.2559 9.09912 12.439 9.82178 12.7515C10.5444 13.064 11.2085 13.501 11.814 14.0625H13.125V15H0.9375V14.0625H2.24854C2.84912 13.5059 3.51318 13.0713 4.24072 12.7588C4.96826 12.4463 5.74219 12.2607 6.5625 12.2021V3.00293L3.67676 2.04346L4.87061 5.625H5.625V6.5625H5.46387C5.36621 6.84082 5.22949 7.09473 5.05371 7.32422C4.87793 7.55371 4.67041 7.75146 4.43115 7.91748C4.19189 8.0835 3.93799 8.21045 3.66943 8.29834C3.40088 8.38623 3.11523 8.43262 2.8125 8.4375C2.51953 8.4375 2.23389 8.39355 1.95557 8.30566C1.67725 8.21777 1.4209 8.09082 1.18652 7.9248C0.952148 7.75879 0.74707 7.56104 0.571289 7.33154C0.395508 7.10205 0.258789 6.8457 0.161133 6.5625H0V5.625H0.754395L2.12402 1.52344L0.205078 0.88623L0.505371 0L6.5625 2.01416V0H7.5V2.3291L13.8501 4.43848L13.5498 5.33203L12.1069 4.84863L13.3081 8.4375ZM4.43848 6.5625H1.18652C1.35742 6.85547 1.58691 7.08496 1.875 7.25098C2.16309 7.41699 2.47559 7.5 2.8125 7.5C3.14941 7.5 3.46191 7.41699 3.75 7.25098C4.03809 7.08496 4.26758 6.85547 4.43848 6.5625ZM3.88184 5.625L2.8125 2.41699L1.74316 5.625H3.88184ZM7.03125 13.125C6.45508 13.125 5.89111 13.2031 5.33936 13.3594C4.7876 13.5156 4.26758 13.75 3.7793 14.0625H10.2832C9.7998 13.7549 9.27979 13.5229 8.72314 13.3667C8.1665 13.2104 7.60254 13.1299 7.03125 13.125ZM11.25 5.22949L10.1807 8.4375H12.3193L11.25 5.22949ZM12.876 9.375H9.62402C9.79492 9.66797 10.0244 9.89746 10.3125 10.0635C10.6006 10.2295 10.9131 10.3125 11.25 10.3125C11.5869 10.3125 11.8994 10.2295 12.1875 10.0635C12.4756 9.89746 12.7051 9.66797 12.876 9.375Z" fill="black"/>
</svg>
