<svg width="17" height="17" viewBox="0 0 17 17" fill="none" xmlns="http://www.w3.org/2000/svg">
<path d="M16.2654 17L9.76838 10.503C9.24961 10.9449 8.65303 11.287 7.97864 11.5291C7.30424 11.7712 6.62638 11.8922 5.94507 11.8922C4.28363 11.8922 2.87743 11.3171 1.72646 10.1668C0.575486 9.01582 0 7.60996 0 5.94922C0 4.28847 0.574793 2.88192 1.72438 1.72957C2.87466 0.576523 4.28017 0 5.94092 0C7.60236 0 9.00925 0.575485 10.1616 1.72646C11.314 2.87743 11.8901 4.28398 11.8901 5.94611C11.8901 6.66685 11.7625 7.36441 11.5073 8.03881C11.2514 8.71321 10.9159 9.29008 10.5009 9.76942L16.9979 16.2654L16.2654 17ZM5.94507 10.8536C7.32153 10.8536 8.48391 10.3798 9.43222 9.43222C10.3798 8.4846 10.8536 7.32222 10.8536 5.94507C10.8536 4.56861 10.3798 3.40657 9.43222 2.45895C8.48461 1.51134 7.32257 1.03753 5.94611 1.03753C4.56964 1.03753 3.40726 1.51134 2.45896 2.45895C1.51134 3.40657 1.03753 4.56861 1.03753 5.94507C1.03753 7.32153 1.51134 8.48357 2.45896 9.43118C3.40657 10.3788 4.56861 10.8536 5.94507 10.8536Z" fill="#1B1B1B"/>
</svg>
