<svg width="12" height="11" viewBox="0 0 12 11" fill="none" xmlns="http://www.w3.org/2000/svg">
<path d="M6 0C6.79565 0 7.55871 0.280951 8.12132 0.781048C8.68393 1.28115 9 1.95942 9 2.66667C9 3.37391 8.68393 4.05219 8.12132 4.55229C7.55871 5.05238 6.79565 5.33333 6 5.33333C5.20435 5.33333 4.44129 5.05238 3.87868 4.55229C3.31607 4.05219 3 3.37391 3 2.66667C3 1.95942 3.31607 1.28115 3.87868 0.781048C4.44129 0.280951 5.20435 0 6 0ZM6 6.66667C9.315 6.66667 12 7.86 12 9.33333V10.6667H0V9.33333C0 7.86 2.685 6.66667 6 6.66667Z" fill="black"/>
</svg>
