<svg width="11" height="13" viewBox="0 0 11 13" fill="none" xmlns="http://www.w3.org/2000/svg">
<path d="M5.47368 9.90476C5.83661 9.90476 6.18468 9.77432 6.4413 9.54213C6.69793 9.30995 6.84211 8.99503 6.84211 8.66667C6.84211 8.33831 6.69793 8.02339 6.4413 7.7912C6.18468 7.55902 5.83661 7.42857 5.47368 7.42857C5.11076 7.42857 4.76269 7.55902 4.50607 7.7912C4.24944 8.02339 4.10526 8.33831 4.10526 8.66667C4.10526 8.99503 4.24944 9.30995 4.50607 9.54213C4.76269 9.77432 5.11076 9.90476 5.47368 9.90476ZM9.57895 4.33333C9.94188 4.33333 10.2899 4.46378 10.5466 4.69596C10.8032 4.92815 10.9474 5.24307 10.9474 5.57143V11.7619C10.9474 12.0903 10.8032 12.4052 10.5466 12.6374C10.2899 12.8696 9.94188 13 9.57895 13H1.36842C1.00549 13 0.65743 12.8696 0.400801 12.6374C0.144172 12.4052 0 12.0903 0 11.7619V5.57143C0 5.24307 0.144172 4.92815 0.400801 4.69596C0.65743 4.46378 1.00549 4.33333 1.36842 4.33333H2.05263V3.09524C2.05263 2.27433 2.41306 1.48704 3.05464 0.906574C3.69621 0.326105 4.56637 0 5.47368 0C5.92294 0 6.3678 0.0800607 6.78287 0.235611C7.19793 0.391161 7.57506 0.619155 7.89273 0.906574C8.21041 1.19399 8.4624 1.53521 8.63433 1.91074C8.80625 2.28627 8.89474 2.68877 8.89474 3.09524V4.33333H9.57895ZM5.47368 1.2381C4.92929 1.2381 4.4072 1.43376 4.02225 1.78204C3.63731 2.13032 3.42105 2.60269 3.42105 3.09524V4.33333H7.52632V3.09524C7.52632 2.60269 7.31006 2.13032 6.92512 1.78204C6.54017 1.43376 6.01808 1.2381 5.47368 1.2381Z" fill="black"/>
</svg>
