<svg width="36" height="37" viewBox="0 0 36 37" fill="none" xmlns="http://www.w3.org/2000/svg">
<path d="M10.7749 37C9.91826 37 9.19628 36.7131 8.60895 36.1393C8.02298 35.5643 7.72999 34.8573 7.72999 34.0185C7.72999 33.1811 8.02298 32.4748 8.60895 31.8997C9.19628 31.3246 9.91826 31.0371 10.7749 31.0371C11.6302 31.0371 12.3515 31.3246 12.9388 31.8997C13.5261 32.4748 13.8198 33.1811 13.8198 34.0185C13.8198 34.8573 13.5261 35.5643 12.9388 36.1393C12.3515 36.7131 11.6302 37 10.7749 37ZM29.8238 37C28.9685 37 28.2472 36.7131 27.6599 36.1393C27.0726 35.5643 26.7789 34.8573 26.7789 34.0185C26.7789 33.1811 27.0726 32.4748 27.6599 31.8997C28.2472 31.3246 28.9685 31.0371 29.8238 31.0371C30.6804 31.0371 31.4024 31.3246 31.9897 31.8997C32.5757 32.4748 32.8687 33.1811 32.8687 34.0185C32.8687 34.8573 32.5757 35.5643 31.9897 36.1393C31.4024 36.7131 30.6804 37 29.8238 37ZM7.87818 5.96293L13.2961 17.1236H26.7647C26.9988 17.1236 27.2065 17.0666 27.3879 16.9526C27.5706 16.8373 27.7269 16.6783 27.8568 16.4756L33.1651 7.03427C33.3221 6.75335 33.3356 6.50424 33.2057 6.28692C33.0758 6.07093 32.8545 5.96293 32.5419 5.96293H7.87818ZM6.88554 3.97529H33.3153C34.1963 3.97529 34.8594 4.32776 35.3046 5.03272C35.7512 5.73634 35.7749 6.46183 35.3757 7.20919L29.5741 17.5608C29.2805 18.0445 28.8988 18.4241 28.4292 18.6998C27.9596 18.9741 27.4434 19.1112 26.8804 19.1112H12.3826L9.91623 23.5456C9.70783 23.8504 9.70106 24.1817 9.89593 24.5395C10.0908 24.8972 10.3838 25.0761 10.7749 25.0761H32.8687V27.0638H10.7749C9.59077 27.0638 8.70707 26.5748 8.1238 25.5969C7.54188 24.619 7.52767 23.6371 8.08117 22.6512L11.1342 17.3243L3.67012 1.98764H0V0H4.9571L6.88554 3.97529Z" fill="white"/>
</svg>
