<svg width="33" height="33" viewBox="0 0 33 33" fill="none" xmlns="http://www.w3.org/2000/svg">
<path d="M31.5779 32.3164L18.9645 19.9658C17.9573 20.806 16.7991 21.4562 15.4898 21.9164C14.1806 22.3766 12.8646 22.6067 11.5418 22.6067C8.31631 22.6067 5.58628 21.5134 3.35177 19.3268C1.11726 17.1388 0 14.4663 0 11.3093C0 8.15225 1.11591 5.47845 3.34774 3.28786C5.58091 1.09595 8.30959 0 11.5338 0C14.7593 0 17.4907 1.09398 19.7279 3.28194C21.9651 5.4699 23.0837 8.14371 23.0837 11.3034C23.0837 12.6735 22.8359 13.9995 22.3404 15.2815C21.8436 16.5635 21.1923 17.6601 20.3866 18.5714L33 30.92L31.5779 32.3164ZM11.5418 20.6324C14.2141 20.6324 16.4708 19.7317 18.3119 17.9304C20.1516 16.129 21.0714 13.9193 21.0714 11.3014C21.0714 8.68478 20.1516 6.47578 18.3119 4.6744C16.4721 2.87301 14.2161 1.97232 11.5439 1.97232C8.87158 1.97232 6.61491 2.87301 4.77385 4.6744C2.93414 6.47578 2.01428 8.68478 2.01428 11.3014C2.01428 13.918 2.93414 16.127 4.77385 17.9284C6.61356 19.7298 8.86956 20.6324 11.5418 20.6324Z" fill="white"/>
</svg>
