<svg width="30" height="42" viewBox="0 0 30 42" fill="none" xmlns="http://www.w3.org/2000/svg">
<path d="M15 2.9375C16.4834 2.9375 17.9334 3.3682 19.1668 4.17514C20.4001 4.98209 21.3614 6.12902 21.9291 7.47092C22.4968 8.81281 22.6453 10.2894 22.3559 11.7139C22.0665 13.1385 21.3522 14.447 20.3033 15.4741C19.2544 16.5011 17.918 17.2005 16.4632 17.4839C15.0083 17.7673 13.5003 17.6218 12.1299 17.066C10.7594 16.5102 9.58809 15.5689 8.76398 14.3612C7.93987 13.1535 7.5 11.7337 7.5 10.2812C7.5 8.33357 8.29018 6.46565 9.6967 5.08843C11.1032 3.71121 13.0109 2.9375 15 2.9375ZM15 0C12.9233 0 10.8932 0.602985 9.16651 1.7327C7.4398 2.86242 6.09399 4.46813 5.29927 6.34679C4.50455 8.22544 4.29661 10.2927 4.70176 12.287C5.1069 14.2814 6.10693 16.1133 7.57538 17.5512C9.04383 18.989 10.9148 19.9682 12.9516 20.3649C14.9884 20.7617 17.0996 20.5581 19.0182 19.7799C20.9368 19.0017 22.5767 17.6839 23.7304 15.9932C24.8842 14.3025 25.5 12.3147 25.5 10.2812C25.5 7.55449 24.3938 4.93942 22.4246 3.01131C20.4555 1.0832 17.7848 0 15 0ZM30 41.125H27V33.7812C27 32.8169 26.806 31.8619 26.4291 30.9709C26.0522 30.0799 25.4997 29.2704 24.8033 28.5884C24.1069 27.9065 23.2801 27.3656 22.3701 26.9965C21.4602 26.6275 20.4849 26.4375 19.5 26.4375H10.5C8.51088 26.4375 6.60322 27.2112 5.1967 28.5884C3.79018 29.9657 3 31.8336 3 33.7812V41.125H0V33.7812C0 31.0545 1.10625 28.4394 3.07538 26.5113C5.04451 24.5832 7.71523 23.5 10.5 23.5H19.5C22.2848 23.5 24.9555 24.5832 26.9246 26.5113C28.8938 28.4394 30 31.0545 30 33.7812V41.125Z" fill="white"/>
</svg>
