<svg width="28" height="31" viewBox="0 0 28 31" fill="none" xmlns="http://www.w3.org/2000/svg">
<path d="M2 28.1706H9.384V18.2282C9.384 17.7804 9.53933 17.405 9.85 17.1021C10.1593 16.7979 10.5427 16.6458 11 16.6458H17C17.4573 16.6458 17.8407 16.7979 18.15 17.1021C18.4607 17.405 18.616 17.7804 18.616 18.2282V28.1706H26V11.1488C26 10.9477 25.9553 10.765 25.866 10.6005C25.7753 10.4386 25.6533 10.295 25.5 10.1696L14.73 2.22271C14.526 2.04646 14.2827 1.95833 14 1.95833C13.7173 1.95833 13.474 2.04646 13.27 2.22271L2.5 10.1696C2.34667 10.295 2.22467 10.4386 2.134 10.6005C2.04467 10.765 2 10.9477 2 11.1488V28.1706ZM0 28.1706V11.1488C0 10.6475 0.114667 10.1729 0.344 9.72508C0.572 9.27728 0.888 8.90781 1.292 8.61667L12.062 0.632542C12.6247 0.210848 13.2687 0 13.994 0C14.718 0 15.366 0.210848 15.938 0.632542L26.708 8.61667C27.112 8.90781 27.428 9.27728 27.656 9.72508C27.8853 10.1729 28 10.6475 28 11.1488V28.1706C28 28.6955 27.8007 29.1531 27.402 29.5434C27.002 29.9338 26.5347 30.129 26 30.129H18.23C17.7727 30.129 17.3893 29.9775 17.08 29.6746C16.7707 29.3717 16.616 28.9957 16.616 28.5466V18.6042H11.384V28.5466C11.384 28.9957 11.2293 29.3717 10.92 29.6746C10.6107 29.9775 10.2273 30.129 9.77 30.129H2C1.464 30.129 0.996666 29.9338 0.598 29.5434C0.199333 29.1518 0 28.6942 0 28.1706Z" fill="white"/>
</svg>
